<?xml version="1.0" encoding="UTF-8"?>
<!DOCTYPE svg PUBLIC "-//W3C//DTD SVG 1.1//EN" "http://www.w3.org/Graphics/SVG/1.1/DTD/svg11.dtd">
<!-- Creator: CorelDRAW X7 -->
<svg xmlns="http://www.w3.org/2000/svg" xml:space="preserve" width="210mm" height="59.688mm" version="1.1" style="shape-rendering:geometricPrecision; text-rendering:geometricPrecision; image-rendering:optimizeQuality; fill-rule:evenodd; clip-rule:evenodd"
viewBox="0 0 21000 5969"
 xmlns:xlink="http://www.w3.org/1999/xlink">
 <defs>
  <style type="text/css">
   <![CDATA[
    .fil1 {fill:#0CA49D;fill-rule:nonzero}
    .fil0 {fill:#168F8C;fill-rule:nonzero}
    .fil2 {fill:#F9AD3C;fill-rule:nonzero}
   ]]>
  </style>
 </defs>
 <g id="Layer_x0020_1">
  <metadata id="CorelCorpID_0Corel-Layer"/>
  <path class="fil0" d="M6967 1716l-7 0 0 1c2,0 4,-1 7,-1z"/>
  <path class="fil1" d="M7014 1649l0 4288 1008 0 0 -3214c0,-240 -128,-965 -1008,-1074z"/>
  <path class="fil1" d="M1654 5191c128,0 233,-16 315,-49 81,-32 145,-75 191,-126 45,-52 77,-110 94,-175 17,-65 26,-131 26,-198 0,-77 -10,-146 -30,-207 -20,-61 -55,-113 -103,-155 -49,-42 -114,-75 -194,-98 -81,-23 -182,-34 -305,-34l-677 0 0 1042 683 0zm-683 -2724l0 1033 505 0c107,0 204,-7 290,-23 86,-15 159,-42 220,-80 60,-38 106,-91 138,-158 31,-67 47,-151 47,-253 0,-99 -13,-182 -37,-248 -25,-66 -64,-119 -115,-159 -52,-40 -118,-69 -197,-86 -79,-17 -174,-26 -283,-26l-568 0zm568 -726c289,0 535,27 738,80 203,54 369,129 497,227 128,97 222,216 280,356 58,139 88,295 88,468 0,93 -14,184 -41,271 -26,87 -69,168 -126,244 -57,75 -131,145 -221,208 -90,63 -198,118 -325,164 276,67 480,175 612,324 132,149 198,343 198,580 0,178 -34,343 -103,496 -69,153 -170,287 -303,401 -133,114 -297,203 -493,267 -195,64 -418,96 -669,96l-1671 0 0 -4182 1539 0z"/>
  <path class="fil1" d="M6157 2590c-29,46 -59,81 -91,104 -31,23 -72,34 -122,34 -44,0 -91,-14 -142,-42 -50,-27 -108,-58 -172,-93 -64,-34 -137,-65 -220,-93 -82,-28 -176,-42 -281,-42 -182,0 -318,39 -407,117 -89,77 -133,182 -133,314 0,84 27,154 80,209 54,56 124,104 211,144 88,40 187,77 299,110 112,34 226,71 343,112 117,42 231,90 343,145 112,56 212,127 299,213 87,86 158,191 211,314 54,123 81,272 81,446 0,194 -34,375 -101,543 -67,168 -164,315 -291,441 -128,125 -285,223 -471,295 -187,72 -399,108 -636,108 -131,0 -263,-14 -398,-40 -135,-27 -266,-65 -392,-114 -127,-49 -245,-106 -356,-173 -111,-67 -208,-142 -290,-224l287 -454c23,-32 53,-60 90,-82 38,-22 78,-33 122,-33 58,0 116,19 174,55 58,36 125,76 198,120 74,44 159,85 254,121 96,36 209,55 339,55 176,0 313,-39 411,-117 98,-77 146,-200 146,-369 0,-97 -27,-177 -80,-238 -54,-61 -124,-112 -211,-152 -87,-40 -186,-76 -297,-106 -111,-31 -225,-65 -342,-102 -117,-37 -231,-83 -342,-138 -111,-54 -210,-126 -297,-215 -87,-89 -158,-200 -211,-333 -54,-133 -81,-297 -81,-492 0,-157 32,-310 95,-460 63,-149 156,-282 279,-399 122,-116 273,-210 451,-279 178,-70 382,-105 611,-105 129,0 254,10 375,30 122,20 237,50 346,89 109,39 211,86 306,141 95,54 179,116 254,185l-241 450z"/>
  <path class="fil2" d="M8133 104c-3,-35 -7,-70 -12,-104 226,233 548,369 897,347 167,-10 323,-56 462,-130 -108,189 -164,409 -149,642 18,288 141,544 329,734 -96,-19 -196,-27 -299,-20 -408,26 -753,262 -935,596 -72,-494 -456,-878 -935,-962 405,-198 672,-626 642,-1103z"/>
  <path class="fil1" d="M9863 4226c46,0 86,-5 119,-16 33,-10 61,-25 82,-44 22,-19 37,-42 47,-69 11,-26 16,-55 16,-87 0,-62 -22,-111 -66,-146 -44,-37 -110,-55 -198,-55l-259 0 0 417 259 0zm-259 -940l0 408 213 0c46,0 86,-5 119,-15 34,-10 62,-24 84,-42 22,-18 38,-39 49,-64 10,-26 16,-54 16,-84 0,-70 -21,-122 -64,-154 -42,-33 -108,-49 -197,-49l-220 0zm220 -128c74,0 137,7 190,22 53,14 97,35 131,61 34,27 60,60 76,99 16,38 24,82 24,130 0,30 -5,58 -14,85 -9,27 -23,52 -41,76 -18,23 -42,44 -70,63 -28,18 -61,33 -99,45 88,17 154,48 198,95 45,45 67,105 67,180 0,51 -9,97 -28,139 -19,41 -46,77 -82,107 -36,30 -80,54 -132,71 -53,16 -112,24 -179,24l-423 0 0 -1197 382 0z"/>
  <path class="fil1" d="M11142 3910l-188 -487c-6,-14 -12,-31 -18,-50 -6,-19 -12,-40 -17,-61 -12,45 -24,82 -36,112l-188 486 447 0zm337 445l-125 0c-15,0 -26,-4 -35,-11 -9,-7 -16,-17 -20,-28l-112 -289 -537 0 -112 289c-3,10 -10,19 -19,27 -10,8 -22,12 -35,12l-126 0 479 -1197 164 0 478 1197z"/>
  <path class="fil1" d="M12606 3158l0 1197 -81 0c-12,0 -23,-2 -32,-7 -9,-4 -17,-12 -25,-22l-693 -903c1,14 2,28 3,41 0,14 1,26 1,38l0 853 -142 0 0 -1197 83 0c7,0 14,0 19,1 5,1 9,2 13,5 4,1 8,4 12,8 4,3 8,8 12,13l693 902c-2,-15 -3,-29 -4,-42 0,-14 -1,-27 -1,-39l0 -848 142 0z"/>
  <path class="fil1" d="M13074 3682l61 0c21,0 38,-2 51,-7 12,-6 24,-15 35,-28l398 -451c11,-14 23,-24 35,-30 12,-5 27,-8 45,-8l137 0 -456 515c-11,14 -22,25 -32,34 -10,8 -21,15 -33,20 15,5 29,13 41,23 12,9 24,22 36,38l476 567 -140 0c-11,0 -20,-1 -28,-2 -7,-2 -14,-4 -19,-7 -6,-3 -11,-7 -15,-10 -4,-5 -8,-10 -12,-15l-412 -476c-12,-14 -24,-23 -36,-29 -13,-6 -33,-9 -59,-9l-73 0 0 548 -162 0 0 -1197 162 0 0 524z"/>
  <path class="fil1" d="M15058 3345c-5,8 -10,15 -16,19 -6,4 -13,6 -21,6 -10,0 -21,-5 -34,-14 -13,-10 -29,-20 -48,-31 -19,-12 -42,-22 -70,-32 -26,-9 -59,-14 -97,-14 -36,0 -68,5 -96,15 -28,9 -51,23 -70,39 -18,17 -32,37 -41,60 -10,22 -15,46 -15,72 0,34 8,61 25,84 16,21 38,40 65,56 27,15 58,29 92,41 34,11 69,22 105,35 36,12 71,26 105,41 35,15 65,35 92,58 27,23 49,52 65,86 17,34 25,76 25,125 0,53 -9,102 -27,148 -17,46 -44,86 -78,120 -34,34 -76,60 -126,80 -50,19 -106,29 -170,29 -78,0 -148,-14 -212,-42 -63,-28 -118,-66 -163,-114l47 -77c4,-6 10,-11 16,-15 7,-4 14,-7 22,-7 7,0 15,3 24,10 9,5 20,12 32,21 11,9 25,19 40,29 15,11 32,21 51,30 19,9 41,16 66,22 24,6 52,9 82,9 39,0 73,-6 103,-16 30,-11 55,-26 76,-45 21,-19 37,-42 48,-69 12,-27 17,-56 17,-89 0,-36 -8,-66 -25,-89 -16,-23 -37,-43 -64,-58 -27,-16 -58,-29 -92,-39 -35,-12 -70,-23 -105,-34 -36,-12 -71,-25 -106,-40 -34,-15 -65,-34 -91,-58 -27,-24 -49,-54 -66,-90 -16,-36 -24,-81 -24,-133 0,-43 8,-84 24,-123 17,-40 41,-75 72,-105 32,-31 71,-56 116,-74 47,-18 99,-28 159,-28 67,0 128,11 182,32 55,21 104,52 145,92l-39 77z"/>
  <path class="fil1" d="M15778 3878l0 477 -162 0 0 -477 -439 -720 142 0c15,0 26,3 35,11 8,6 15,15 21,26l274 466c10,19 20,38 28,55 8,16 15,33 22,51 6,-18 13,-35 20,-51 8,-17 17,-36 26,-55l273 -466c5,-9 12,-18 21,-25 9,-8 21,-12 35,-12l142 0 -438 720z"/>
  <path class="fil1" d="M16889 3910l-188 -487c-5,-14 -11,-31 -17,-50 -6,-19 -12,-40 -18,-61 -12,45 -23,82 -36,112l-188 486 447 0zm338 445l-126 0c-14,0 -26,-4 -35,-11 -9,-7 -15,-17 -20,-28l-112 -289 -537 0 -112 289c-3,10 -9,19 -19,27 -9,8 -21,12 -35,12l-125 0 478 -1197 164 0 479 1197z"/>
  <path class="fil1" d="M17716 3737c46,0 88,-5 123,-16 37,-12 67,-28 91,-49 24,-21 42,-46 55,-75 12,-29 18,-61 18,-96 0,-71 -23,-125 -70,-161 -47,-36 -117,-54 -211,-54l-177 0 0 451 171 0zm553 618l-144 0c-30,0 -51,-12 -65,-34l-311 -428c-9,-14 -20,-23 -31,-29 -10,-6 -27,-9 -50,-9l-123 0 0 500 -161 0 0 -1197 338 0c76,0 142,8 197,23 55,15 100,37 136,66 36,29 63,64 80,105 17,41 26,87 26,137 0,43 -7,82 -20,119 -14,37 -33,70 -59,99 -25,29 -56,54 -92,75 -37,20 -78,36 -124,47 21,11 38,28 54,50l349 476z"/>
  <polygon class="fil1" points="18594,4355 18431,4355 18431,3158 18594,3158 "/>
  <path class="fil1" d="M19535 3910l-188 -487c-5,-14 -11,-31 -17,-50 -6,-19 -12,-40 -18,-61 -11,45 -23,82 -36,112l-188 486 447 0zm338 445l-125 0c-15,0 -27,-4 -36,-11 -9,-7 -15,-17 -20,-28l-112 -289 -537 0 -112 289c-3,10 -9,19 -19,27 -9,8 -21,12 -35,12l-125 0 478 -1197 164 0 479 1197z"/>
  <polygon class="fil1" points="21000,3158 21000,4355 20838,4355 20838,3810 20192,3810 20192,4355 20030,4355 20030,3158 20192,3158 20192,3692 20838,3692 20838,3158 "/>
  <polygon class="fil1" points="9604,5933 9442,5933 9442,4736 9604,4736 "/>
  <path class="fil1" d="M10880 4736l0 1197 -81 0c-12,0 -23,-3 -32,-7 -9,-5 -17,-12 -25,-23l-693 -902c1,14 2,28 3,41 0,14 1,26 1,38l0 853 -142 0 0 -1197 83 0c7,0 14,0 19,1 5,1 9,2 13,5 4,1 8,4 12,8 4,3 8,8 12,13l693 901c-2,-14 -3,-28 -4,-41 0,-14 -1,-27 -1,-40l0 -847 142 0z"/>
  <path class="fil1" d="M12224 5335c0,89 -14,171 -43,244 -28,74 -68,137 -120,189 -52,52 -114,93 -187,122 -73,28 -153,43 -241,43l-447 0 0 -1197 447 0c88,0 168,14 241,43 73,28 135,69 187,122 52,52 92,115 120,189 29,73 43,155 43,245zm-166 0c0,-74 -10,-140 -30,-198 -21,-58 -49,-107 -86,-147 -36,-40 -81,-70 -133,-91 -53,-22 -111,-32 -176,-32l-285 0 0 934 285 0c65,0 123,-10 176,-31 52,-21 97,-52 133,-91 37,-40 65,-89 86,-147 20,-58 30,-124 30,-197z"/>
  <path class="fil1" d="M13563 5335c0,89 -14,172 -42,247 -29,74 -69,139 -121,193 -51,54 -114,96 -187,126 -72,29 -152,44 -240,44 -88,0 -169,-15 -241,-44 -72,-30 -134,-72 -186,-126 -52,-54 -92,-119 -120,-193 -29,-75 -43,-158 -43,-247 0,-90 14,-172 43,-247 28,-75 68,-140 120,-194 52,-54 114,-97 186,-127 72,-30 153,-45 241,-45 88,0 168,15 240,45 73,30 136,73 187,127 52,54 92,119 121,194 28,75 42,157 42,247zm-166 0c0,-74 -10,-140 -30,-198 -20,-59 -49,-108 -85,-148 -37,-41 -82,-72 -134,-94 -52,-22 -111,-32 -175,-32 -64,0 -123,10 -175,32 -52,22 -97,53 -134,94 -37,40 -66,89 -86,148 -20,58 -30,124 -30,198 0,73 10,139 30,197 20,58 49,108 86,148 37,40 82,71 134,93 52,21 111,32 175,32 64,0 123,-11 175,-32 52,-22 97,-53 134,-93 36,-40 65,-90 85,-148 20,-58 30,-124 30,-197z"/>
  <path class="fil1" d="M14765 4736l0 1197 -81 0c-13,0 -24,-3 -33,-7 -8,-5 -17,-12 -25,-23l-692 -902c1,14 2,28 2,41 1,14 1,26 1,38l0 853 -142 0 0 -1197 84 0c7,0 13,0 18,1 5,1 9,2 13,5 4,1 8,4 12,8 4,3 8,8 13,13l692 901c-1,-14 -2,-28 -3,-41 -1,-14 -1,-27 -1,-40l0 -847 142 0z"/>
  <polygon class="fil1" points="15809,5801 15808,5933 15071,5933 15071,4736 15808,4736 15808,4868 15233,4868 15233,5265 15699,5265 15699,5392 15233,5392 15233,5801 "/>
  <path class="fil1" d="M16647 4923c-5,8 -10,14 -17,19 -5,4 -12,6 -20,6 -10,0 -21,-5 -34,-14 -13,-10 -29,-20 -48,-31 -19,-12 -42,-23 -70,-32 -26,-10 -59,-14 -97,-14 -36,0 -68,5 -96,15 -28,9 -51,22 -70,39 -18,17 -32,37 -41,59 -10,23 -15,47 -15,73 0,33 8,61 25,84 16,21 38,40 65,56 27,15 58,29 92,40 34,12 69,23 105,36 36,12 71,26 105,41 35,15 65,35 92,58 27,23 49,52 65,86 17,34 25,76 25,125 0,53 -9,102 -27,148 -17,46 -44,86 -78,120 -34,33 -76,60 -126,80 -50,19 -106,29 -170,29 -78,0 -148,-14 -212,-42 -63,-28 -118,-66 -163,-114l47 -77c4,-6 10,-11 16,-15 7,-5 14,-7 22,-7 7,0 15,3 24,9 9,6 20,13 32,22 11,9 25,19 40,29 15,11 32,21 51,30 19,8 41,16 66,22 24,6 52,8 82,8 39,0 73,-5 103,-15 30,-11 55,-26 76,-45 21,-19 37,-42 48,-69 12,-27 17,-57 17,-89 0,-37 -8,-66 -25,-89 -16,-23 -37,-43 -64,-58 -27,-16 -58,-29 -92,-40 -35,-11 -70,-22 -105,-33 -36,-12 -71,-25 -106,-40 -34,-15 -65,-35 -91,-59 -27,-24 -49,-53 -66,-89 -16,-36 -24,-81 -24,-134 0,-42 8,-83 24,-122 17,-40 41,-75 72,-106 32,-30 71,-55 116,-73 47,-19 99,-28 159,-28 67,0 128,11 182,32 55,21 104,52 145,92l-39 77z"/>
  <polygon class="fil1" points="17104,5933 16942,5933 16942,4736 17104,4736 "/>
  <path class="fil1" d="M18046 5488l-188 -487c-6,-14 -11,-31 -18,-50 -6,-19 -12,-40 -17,-62 -12,45 -24,83 -36,113l-188 486 447 0zm337 445l-125 0c-14,0 -26,-4 -35,-11 -9,-8 -16,-17 -20,-28l-112 -289 -537 0 -112 289c-3,10 -10,19 -19,27 -10,8 -21,12 -35,12l-126 0 479 -1197 164 0 478 1197z"/>
 </g>
</svg>
